<?xml version="1.0" encoding="utf-8"?>
<!-- Generator: Adobe Illustrator 21.0.1, SVG Export Plug-In . SVG Version: 6.00 Build 0)  -->
<svg version="1.1" id="Слой_1" xmlns="http://www.w3.org/2000/svg" xmlns:xlink="http://www.w3.org/1999/xlink" x="0px" y="0px"
	 viewBox="0 0 300 300" style="enable-background:new 0 0 300 300;" xml:space="preserve">
<style type="text/css">
	.st0{fill:#7A94C1;stroke:#000000;stroke-miterlimit:10;}
	.st1{fill:#7D6BBF;stroke:#000000;stroke-miterlimit:10;}
	.st2{fill:#BF651B;stroke:#000000;stroke-miterlimit:10;}
</style>
<path id="highest" class="st0" d="M244.2,136.1h-188c-4.2,0-7.5-3.4-7.5-7.5V19.8c0-4.2,3.4-7.5,7.5-7.5h188c4.2,0,7.5,3.4,7.5,7.5
	v108.8C251.8,132.7,248.4,136.1,244.2,136.1z"/>
<path id="middle" class="st1" d="M248.4,209.4h-188c-4.2,0-7.5-3.4-7.5-7.5V93.1c0-4.2,3.4-7.5,7.5-7.5h188c4.2,0,7.5,3.4,7.5,7.5
	v108.8C256,206,252.6,209.4,248.4,209.4z"/>
<path id="lowest_1_" class="st2" d="M254.4,279.6h-188c-4.2,0-7.5-3.4-7.5-7.5V163.4c0-4.2,3.4-7.5,7.5-7.5h188
	c4.2,0,7.5,3.4,7.5,7.5v108.8C261.9,276.3,258.5,279.6,254.4,279.6z"/>
</svg>
